<svg width="16.000000" height="15.000000" viewBox="0 0 16 15" fill="none" xmlns="http://www.w3.org/2000/svg" xmlns:xlink="http://www.w3.org/1999/xlink">
	<desc>
			Created with Pixso.
	</desc>
	<defs/>
	<path id="Vector" d="M15.22 5.28L10.5 4.59L8.4 0.33C8.34 0.21 8.24 0.11 8.13 0.06C7.83 -0.09 7.48 0.03 7.33 0.33L5.22 4.59L0.5 5.28C0.37 5.3 0.25 5.36 0.16 5.45C0.05 5.56 -0.01 5.71 0 5.87C0 6.03 0.06 6.18 0.17 6.29L3.59 9.61L2.78 14.3C2.76 14.41 2.77 14.52 2.82 14.62C2.86 14.73 2.93 14.82 3.02 14.88C3.11 14.95 3.21 14.99 3.32 14.99C3.43 15 3.55 14.98 3.64 14.93L7.86 12.71L12.08 14.93C12.2 14.99 12.33 15.01 12.46 14.99C12.78 14.93 13 14.62 12.94 14.3L12.14 9.61L15.55 6.29C15.64 6.2 15.7 6.08 15.72 5.95C15.77 5.63 15.55 5.33 15.22 5.28Z" fill="#FF862F" fill-opacity="1.000000" fill-rule="nonzero"/>
</svg>
