<svg width="59.319275" height="17.695312" viewBox="0 0 59.3193 17.6953" fill="none" xmlns="http://www.w3.org/2000/svg" xmlns:xlink="http://www.w3.org/1999/xlink">
	<desc>
			Created with Pixso.
	</desc>
	<defs/>
	<path id="12:21" d="M8.66016 0.240234L4.29492 0.240234L0 2.86523L0 6.89062L3.82031 4.60547L3.91992 4.60547L3.91992 17.6953L8.66016 17.6953L8.66016 0.240234ZM12.2418 17.6953L25.6364 17.6953L25.6364 13.9102L18.8219 13.9102L18.8219 13.8105L20.4567 12.4453C24.4352 9.12891 25.4489 7.40625 25.4489 5.39062C25.4489 2.13281 22.7828 0 18.5993 0C14.5328 0 11.8903 2.26172 11.902 5.93555L16.402 5.93555C16.3903 4.4707 17.2868 3.65039 18.5993 3.65039C19.9 3.65039 20.8317 4.45898 20.8317 5.79492C20.8317 7.03125 20.0407 7.83398 18.7516 8.90039L12.2418 14.2852L12.2418 17.6953ZM30.343 15.8027C31.5969 15.8027 32.7102 14.748 32.7278 13.418C32.7102 12.123 31.5969 11.0625 30.343 11.0625C29.0247 11.0625 27.9407 12.123 27.9583 13.418C27.9407 14.748 29.0247 15.8027 30.343 15.8027ZM30.343 7.41797C31.5969 7.41797 32.7102 6.35742 32.7278 5.0332C32.7102 3.73242 31.5969 2.67773 30.343 2.67773C29.0247 2.67773 27.9407 3.73242 27.9583 5.0332C27.9407 6.35742 29.0247 7.41797 30.343 7.41797ZM35.2532 17.6953L48.6477 17.6953L48.6477 13.9102L41.8333 13.9102L41.8333 13.8105L43.468 12.4453C47.4466 9.12891 48.4602 7.40625 48.4602 5.39062C48.4602 2.13281 45.7942 0 41.6106 0C37.5442 0 34.9016 2.26172 34.9134 5.93555L39.4134 5.93555C39.4016 4.4707 40.2981 3.65039 41.6106 3.65039C42.9114 3.65039 43.843 4.45898 43.843 5.79492C43.843 7.03125 43.052 7.83398 41.763 8.90039L35.2532 14.2852L35.2532 17.6953ZM59.3192 0.240234L54.954 0.240234L50.6591 2.86523L50.6591 6.89062L54.4794 4.60547L54.579 4.60547L54.579 17.6953L59.3192 17.6953L59.3192 0.240234Z" fill="#FFFFFF" fill-opacity="1.000000" fill-rule="evenodd"/>
</svg>
