<svg width="25.510620" height="25.510605" viewBox="0 0 25.5106 25.5106" fill="none" xmlns="http://www.w3.org/2000/svg" xmlns:xlink="http://www.w3.org/1999/xlink">
	<desc>
			Created with Pixso.
	</desc>
	<defs/>
	<path d="M12.7552 0C5.73987 0 0 5.75013 0 12.8321C0 19.2354 4.66846 24.5501 10.7655 25.5106L10.7655 16.546L7.52563 16.546L7.52563 12.8321L10.7655 12.8321L10.7655 10.0019C10.7655 6.78746 12.666 5.02016 15.5869 5.02016C16.9773 5.02016 18.4314 5.26348 18.4314 5.26348L18.4314 8.4267L16.8242 8.4267C15.2426 8.4267 14.7451 9.4128 14.7451 10.4245L14.7451 12.8321L18.2911 12.8321L17.717 16.546L14.7451 16.546L14.7451 25.5106C17.7509 25.034 20.4878 23.4942 22.4619 21.1693C24.4362 18.8443 25.5175 15.8873 25.5106 12.8321C25.5106 5.75013 19.7708 0 12.7552 0Z" fill="#CACACA" fill-opacity="1.000000" fill-rule="nonzero"/>
</svg>
