<svg width="25.510620" height="25.510605" viewBox="0 0 25.5106 25.5106" fill="none" xmlns="http://www.w3.org/2000/svg" xmlns:xlink="http://www.w3.org/1999/xlink">
	<desc>
			Created with Pixso.
	</desc>
	<defs>
		<clipPath id="clip1_66">
			<rect id="instagram" width="25.510607" height="25.510607" transform="matrix(-1 0 0 1 25.5106 0)" fill="white" fill-opacity="0"/>
		</clipPath>
	</defs>
	<rect id="instagram" width="25.510607" height="25.510607" transform="matrix(-1 0 0 1 25.5106 0)" fill="#FFFFFF" fill-opacity="0"/>
	<g clip-path="url(#clip1_66)">
		<path id="Vector" d="M10.3138 12.7553C10.3138 14.1037 11.407 15.1968 12.7554 15.1968C14.1038 15.1968 15.1968 14.1037 15.1968 12.7553C15.1968 11.4069 14.1038 10.3139 12.7554 10.3139C11.407 10.3139 10.3138 11.4069 10.3138 12.7553Z" fill="#CACACA" fill-opacity="1.000000" fill-rule="nonzero"/>
		<path id="Vector" d="M7.04565 8.43562C7.16309 8.11759 7.35034 7.82973 7.59363 7.59345C7.82983 7.35017 8.11755 7.16293 8.43579 7.04557C8.69385 6.94534 9.08154 6.82603 9.79565 6.79352C10.5681 6.75829 10.7998 6.7507 12.7554 6.7507C14.7112 6.7507 14.9429 6.75809 15.7151 6.79333C16.4292 6.82603 16.8171 6.94534 17.0751 7.04557C17.3932 7.16293 17.6812 7.35017 17.9172 7.59345C18.1605 7.82973 18.3477 8.1174 18.4652 8.43562C18.5656 8.6937 18.6848 9.0816 18.7173 9.7957C18.7526 10.568 18.7601 10.7996 18.7601 12.7554C18.7601 14.7111 18.7526 14.9427 18.7173 15.7152C18.6848 16.4293 18.5656 16.817 18.4652 17.0751C18.3477 17.3933 18.1606 17.681 17.9174 17.9172C17.6812 18.1605 17.3934 18.3478 17.0752 18.4651C16.8171 18.5656 16.4292 18.6849 15.7151 18.7174C14.9429 18.7526 14.7114 18.76 12.7556 18.76C10.7996 18.76 10.568 18.7526 9.7959 18.7174C9.08179 18.6849 8.69385 18.5656 8.43579 18.4651C7.797 18.2187 7.29211 17.7139 7.04565 17.0751C6.94543 16.817 6.82617 16.4293 6.79346 15.7152C6.7583 14.9427 6.75085 14.7111 6.75085 12.7554C6.75085 10.7996 6.7583 10.568 6.79346 9.7957C6.82593 9.0816 6.94531 8.6937 7.04565 8.43562ZM12.7554 16.5163C14.8326 16.5163 16.5166 14.8325 16.5166 12.7552C16.5166 10.678 14.8326 8.99421 12.7554 8.99421C10.6783 8.99421 8.99438 10.678 8.99438 12.7552C8.99438 14.8325 10.6783 16.5163 12.7554 16.5163ZM8.8457 9.72446C9.33105 9.72446 9.72461 9.33092 9.72461 8.84551C9.72461 8.3601 9.33105 7.96656 8.8457 7.96656C8.36023 7.96656 7.96667 8.3601 7.96667 8.84551C7.96692 9.33092 8.36023 9.72446 8.8457 9.72446Z" fill="#CACACA" fill-opacity="1.000000" fill-rule="nonzero"/>
		<path id="Vector" d="M12.7554 0C19.7988 0 25.5106 5.71182 25.5106 12.7553C25.5106 19.7988 19.7988 25.5106 12.7554 25.5106C5.71179 25.5106 0 19.7988 0 12.7553C0 5.71182 5.71179 0 12.7554 0ZM5.47522 15.775C5.51062 16.5547 5.63452 17.087 5.81555 17.5529C6.19604 18.5368 6.97388 19.3145 7.95764 19.695C8.42346 19.8761 8.95593 19.9998 9.73547 20.0355C10.5165 20.0711 10.766 20.0796 12.7551 20.0796C14.7444 20.0796 14.9938 20.0711 15.775 20.0355C16.5544 19.9998 17.087 19.8761 17.5527 19.695C18.0416 19.5111 18.4843 19.2229 18.8502 18.8502C19.2227 18.4844 19.511 18.0417 19.6948 17.5529C19.8759 17.0872 19.9999 16.5547 20.0353 15.7752C20.0713 14.9939 20.0797 14.7444 20.0797 12.7553C20.0797 10.7662 20.0713 10.5167 20.0355 9.73561C20 8.95592 19.8762 8.42361 19.6953 7.95766C19.5114 7.46895 19.2229 7.02616 18.8502 6.66045C18.4845 6.28773 18.0416 5.99948 17.553 5.81556C17.087 5.63455 16.5547 5.51077 15.775 5.47515C14.9939 5.43953 14.7444 5.43097 12.7554 5.43097C10.7662 5.43097 10.5167 5.43953 9.7356 5.47534C8.95593 5.51077 8.42358 5.63455 7.95764 5.81536C7.46899 5.99929 7.02612 6.28773 6.66028 6.66045C6.28772 7.02635 5.99927 7.46895 5.81555 7.95766C5.6344 8.42361 5.51062 8.95592 5.47498 9.73561C5.43933 10.5167 5.43103 10.7662 5.43103 12.7553C5.43103 14.7444 5.43933 14.9939 5.47522 15.775Z" fill="#CACACA" fill-opacity="1.000000" fill-rule="nonzero"/>
	</g>
</svg>
