<svg width="224.058838" height="65.000000" viewBox="0 0 224.059 65" fill="none" xmlns="http://www.w3.org/2000/svg" xmlns:xlink="http://www.w3.org/1999/xlink">
	<desc>
			Created with Pixso.
	</desc>
	<defs/>
	<ellipse id="Ellipse 1" cx="112.029419" cy="32.500000" rx="112.029411" ry="32.500000" fill="#FFFFFF" fill-opacity="1.000000"/>
	<path id="12:21" d="M83.1436 16.1812L77.687 16.1812L72.3184 19.4624L72.3184 24.4941L77.0938 21.6377L77.2183 21.6377L77.2183 38L83.1436 38L83.1436 16.1812ZM87.6207 38L104.364 38L104.364 33.2686L95.8457 33.2686L95.8457 33.144L97.8892 31.4375C102.862 27.292 104.129 25.1387 104.129 22.6191C104.129 18.5469 100.797 15.8809 95.5674 15.8809C90.4844 15.8809 87.1812 18.708 87.1958 23.3003L92.8208 23.3003C92.8062 21.4692 93.9268 20.4438 95.5674 20.4438C97.1934 20.4438 98.358 21.4546 98.358 23.1245C98.358 24.6699 97.3692 25.6733 95.7579 27.0063L87.6207 33.7373L87.6207 38ZM110.247 35.6343C111.815 35.6343 113.206 34.3159 113.228 32.6533C113.206 31.0347 111.815 29.709 110.247 29.709C108.599 29.709 107.244 31.0347 107.266 32.6533C107.244 34.3159 108.599 35.6343 110.247 35.6343ZM110.247 25.1533C111.815 25.1533 113.206 23.8276 113.228 22.1724C113.206 20.5464 111.815 19.228 110.247 19.228C108.599 19.228 107.244 20.5464 107.266 22.1724C107.244 23.8276 108.599 25.1533 110.247 25.1533ZM116.385 38L133.128 38L133.128 33.2686L124.61 33.2686L124.61 33.144L126.653 31.4375C131.627 27.292 132.894 25.1387 132.894 22.6191C132.894 18.5469 129.561 15.8809 124.332 15.8809C119.249 15.8809 115.945 18.708 115.96 23.3003L121.585 23.3003C121.57 21.4692 122.691 20.4438 124.332 20.4438C125.958 20.4438 127.122 21.4546 127.122 23.1245C127.122 24.6699 126.133 25.6733 124.522 27.0063L116.385 33.7373L116.385 38ZM146.467 16.1812L141.011 16.1812L135.642 19.4624L135.642 24.4941L140.418 21.6377L140.542 21.6377L140.542 38L146.467 38L146.467 16.1812Z" fill="#000000" fill-opacity="1.000000" fill-rule="evenodd"/>
	<path id="choose your look" d="M80.3239 49.0801C81.6168 49.0801 82.4098 48.3379 82.4254 47.1816L80.9723 47.1816C80.9371 47.6387 80.6911 47.8867 80.3473 47.8867C79.9352 47.8867 79.6657 47.5332 79.6657 46.8184C79.6657 46.1016 79.9352 45.75 80.3473 45.75C80.693 45.75 80.9293 45.998 80.9723 46.4551L82.4254 46.4551C82.4176 45.3184 81.6071 44.5801 80.3239 44.5801C78.9039 44.5801 78.0621 45.4883 78.0621 46.8301C78.0621 48.1699 78.9039 49.0801 80.3239 49.0801ZM84.6429 46.5449C84.6449 46.1133 84.8949 45.8516 85.2777 45.8516C85.6781 45.8516 85.9066 46.1133 85.9027 46.5449L85.9027 49L87.4711 49L87.4711 46.2168C87.475 45.2617 86.8714 44.5801 85.9496 44.5801C85.3031 44.5801 84.8265 44.9082 84.6312 45.4668L84.5843 45.4668L84.5843 43.1816L83.0746 43.1816L83.0746 49L84.6429 49L84.6429 46.5449ZM90.3466 49.0801C91.7665 49.0801 92.6083 48.1699 92.6083 46.8301C92.6083 45.4883 91.7665 44.5801 90.3466 44.5801C88.9267 44.5801 88.0849 45.4883 88.0849 46.8301C88.0849 48.1699 88.9267 49.0801 90.3466 49.0801ZM90.3583 47.9199C89.9384 47.9199 89.6884 47.502 89.6884 46.8184C89.6884 46.1328 89.9384 45.7168 90.3583 45.7168C90.7548 45.7168 91.0048 46.1328 91.0048 46.8184C91.0048 47.502 90.7548 47.9199 90.3583 47.9199ZM95.3466 49.0801C96.7665 49.0801 97.6083 48.1699 97.6083 46.8301C97.6083 45.4883 96.7665 44.5801 95.3466 44.5801C93.9267 44.5801 93.0849 45.4883 93.0849 46.8301C93.0849 48.1699 93.9267 49.0801 95.3466 49.0801ZM95.3583 47.9199C94.9384 47.9199 94.6884 47.502 94.6884 46.8184C94.6884 46.1328 94.9384 45.7168 95.3583 45.7168C95.7548 45.7168 96.0048 46.1328 96.0048 46.8184C96.0048 47.502 95.7548 47.9199 95.3583 47.9199ZM102.233 46.0566C102.192 45.1328 101.427 44.5801 100.165 44.5801C98.9169 44.5801 98.1474 45.0918 98.1532 46C98.1474 46.6875 98.5946 47.127 99.4833 47.2832L100.255 47.4199C100.597 47.4824 100.751 47.5742 100.755 47.7383C100.751 47.9199 100.542 48.0234 100.255 48.0234C99.9013 48.0234 99.6513 47.8691 99.6083 47.5918L98.0517 47.5918C98.1357 48.4863 98.9091 49.0801 100.245 49.0801C101.452 49.0801 102.341 48.4922 102.347 47.5566C102.341 46.9121 101.909 46.5371 101.017 46.375L100.13 46.2168C99.7978 46.1562 99.704 46.0371 99.7099 45.9082C99.704 45.7266 99.9286 45.625 100.198 45.625C100.509 45.625 100.767 45.7891 100.79 46.0566L102.233 46.0566ZM105.039 49.0801C106.25 49.0801 107.028 48.5 107.176 47.5918L105.744 47.5918C105.653 47.8379 105.395 47.9766 105.075 47.9766C104.608 47.9766 104.334 47.6699 104.334 47.25L104.334 47.1816L107.176 47.1816L107.176 46.8184C107.176 45.4297 106.325 44.5801 105.006 44.5801C103.653 44.5801 102.789 45.4766 102.789 46.8301C102.789 48.2422 103.643 49.0801 105.039 49.0801ZM104.334 46.3184C104.344 45.9395 104.657 45.6816 105.039 45.6816C105.428 45.6816 105.725 45.9434 105.733 46.3184L104.334 46.3184ZM110.357 50.6367C111.455 50.6367 111.969 50.0859 112.211 49.3633L113.801 44.6367L112.154 44.6367L111.437 47.6582L111.392 47.6582L110.687 44.6367L109.051 44.6367L110.586 49.1934L110.551 49.2734C110.445 49.5137 110.142 49.5059 109.756 49.3691L109.414 50.4824C109.66 50.5801 109.998 50.6367 110.357 50.6367ZM116.21 49.0801C117.63 49.0801 118.472 48.1699 118.472 46.8301C118.472 45.4883 117.63 44.5801 116.21 44.5801C114.79 44.5801 113.949 45.4883 113.949 46.8301C113.949 48.1699 114.79 49.0801 116.21 49.0801ZM116.222 47.9199C115.802 47.9199 115.552 47.502 115.552 46.8184C115.552 46.1328 115.802 45.7168 116.222 45.7168C116.618 45.7168 116.868 46.1328 116.868 46.8184C116.868 47.502 116.618 47.9199 116.222 47.9199ZM121.937 47.0918C121.941 47.5234 121.691 47.7832 121.302 47.7832C120.906 47.7832 120.679 47.5234 120.677 47.0918L120.677 44.6367L119.109 44.6367L119.109 47.4199C119.111 48.375 119.712 49.0566 120.63 49.0566C121.281 49.0566 121.781 48.7266 121.972 48.1699L122.017 48.1699L122.017 49L123.505 49L123.505 44.6367L121.937 44.6367L121.937 47.0918ZM124.302 49L125.87 49L125.87 46.7266C125.87 46.2266 126.214 45.8984 126.677 45.8984C126.839 45.8984 127.099 45.9238 127.255 45.9766L127.255 44.6387C127.13 44.6016 126.995 44.5801 126.858 44.5801C126.392 44.5801 126.028 44.8516 125.87 45.4668L125.823 45.4668L125.823 44.6367L124.302 44.6367L124.302 49ZM130.927 43.1816L129.359 43.1816L129.359 49L130.927 49L130.927 43.1816ZM133.824 49.0801C135.244 49.0801 136.086 48.1699 136.086 46.8301C136.086 45.4883 135.244 44.5801 133.824 44.5801C132.404 44.5801 131.562 45.4883 131.562 46.8301C131.562 48.1699 132.404 49.0801 133.824 49.0801ZM133.836 47.9199C133.416 47.9199 133.166 47.502 133.166 46.8184C133.166 46.1328 133.416 45.7168 133.836 45.7168C134.232 45.7168 134.482 46.1328 134.482 46.8184C134.482 47.502 134.232 47.9199 133.836 47.9199ZM138.824 49.0801C140.244 49.0801 141.086 48.1699 141.086 46.8301C141.086 45.4883 140.244 44.5801 138.824 44.5801C137.404 44.5801 136.562 45.4883 136.562 46.8301C136.562 48.1699 137.404 49.0801 138.824 49.0801ZM138.836 47.9199C138.416 47.9199 138.166 47.502 138.166 46.8184C138.166 46.1328 138.416 45.7168 138.836 45.7168C139.232 45.7168 139.482 46.1328 139.482 46.8184C139.482 47.502 139.232 47.9199 138.836 47.9199ZM141.722 49L143.291 49L143.291 47.7617L143.525 47.4629L144.416 49L146.211 49L144.681 46.5488L146.166 44.6367L144.404 44.6367L143.347 46.1016L143.291 46.1016L143.291 43.1816L141.722 43.1816L141.722 49Z" fill="#000000" fill-opacity="1.000000" fill-rule="evenodd"/>
</svg>
