<svg width="22.000000" height="22.000000" viewBox="0 0 22 22" fill="none" xmlns="http://www.w3.org/2000/svg" xmlns:xlink="http://www.w3.org/1999/xlink">
	<desc>
			Created with Pixso.
	</desc>
	<defs>
		<clipPath id="clip41399_307">
			<rect id="mdi_call" width="22.000000" height="22.000000" fill="white" fill-opacity="0"/>
		</clipPath>
	</defs>
	<rect id="mdi_call" width="22.000000" height="22.000000" fill="#FFFFFF" fill-opacity="0"/>
	<g clip-path="url(#clip41399_307)">
		<path id="Vector" d="M18.3425 14.0984C17.215 14.0984 16.1241 13.915 15.1067 13.585C14.7859 13.4751 14.4283 13.5576 14.1808 13.8049L12.7417 15.6108C10.1475 14.3733 7.71838 12.0359 6.42578 9.3501L8.21338 7.82837C8.46082 7.57178 8.53418 7.21411 8.43335 6.89331C8.09412 5.87573 7.92004 4.78491 7.92004 3.65747C7.92004 3.1626 7.50745 2.75 7.01245 2.75L3.84082 2.75C3.34583 2.75 2.75 2.96997 2.75 3.65747C2.75 12.1733 9.83582 19.25 18.3425 19.25C18.9933 19.25 19.25 18.6726 19.25 18.1682L19.25 15.0059C19.25 14.5107 18.8375 14.0984 18.3425 14.0984Z" fill="#FF6E30" fill-opacity="1.000000" fill-rule="nonzero"/>
	</g>
</svg>
