<svg width="30.000000" height="28.000000" viewBox="0 0 30 28" fill="none" xmlns="http://www.w3.org/2000/svg" xmlns:xlink="http://www.w3.org/1999/xlink">
	<desc>
			Created with Pixso.
	</desc>
	<defs/>
	<path id="Vector" d="M28.81 19.85L8.9 19.85L9.9 17.73L26.51 17.7C27.07 17.7 27.55 17.28 27.65 16.71L29.95 3.34C30.02 2.99 29.92 2.63 29.7 2.36C29.6 2.22 29.46 2.11 29.31 2.04C29.15 1.96 28.98 1.92 28.81 1.92L7.68 1.85L7.5 0.97C7.39 0.4 6.9 0 6.34 0L1.18 0C0.86 0 0.56 0.12 0.34 0.35C0.12 0.58 0 0.9 0 1.22C0 1.54 0.12 1.86 0.34 2.09C0.56 2.32 0.86 2.45 1.18 2.45L5.39 2.45L6.17 6.34L8.12 16.1L5.62 20.34C5.49 20.52 5.41 20.74 5.39 20.97C5.37 21.19 5.42 21.42 5.52 21.62C5.72 22.03 6.12 22.29 6.57 22.29L8.67 22.29C8.22 22.91 7.98 23.66 7.98 24.43C7.98 26.4 9.52 28 11.41 28C13.3 28 14.84 26.4 14.84 24.43C14.84 23.66 14.6 22.91 14.15 22.29L19.54 22.29C19.09 22.91 18.85 23.66 18.85 24.43C18.85 26.4 20.39 28 22.28 28C24.18 28 25.71 26.4 25.71 24.43C25.71 23.66 25.47 22.91 25.03 22.29L28.81 22.29C29.46 22.29 30 21.74 30 21.07C29.99 20.74 29.87 20.43 29.65 20.2C29.42 19.97 29.12 19.85 28.81 19.85ZM8.17 4.26L27.43 4.33L25.54 15.29L10.42 15.32L8.17 4.26ZM11.41 25.53C10.83 25.53 10.36 25.04 10.36 24.43C10.36 23.83 10.83 23.34 11.41 23.34C11.99 23.34 12.47 23.83 12.47 24.43C12.47 24.72 12.36 25 12.16 25.21C11.96 25.41 11.69 25.53 11.41 25.53ZM22.28 25.53C21.7 25.53 21.23 25.04 21.23 24.43C21.23 23.83 21.7 23.34 22.28 23.34C22.87 23.34 23.34 23.83 23.34 24.43C23.34 24.72 23.23 25 23.03 25.21C22.83 25.41 22.56 25.53 22.28 25.53Z" fill="#A65CF0" fill-opacity="1.000000" fill-rule="nonzero"/>
</svg>
