<svg width="25.000000" height="25.000000" viewBox="0 0 25 25" fill="none" xmlns="http://www.w3.org/2000/svg" xmlns:xlink="http://www.w3.org/1999/xlink">
	<desc>
			Created with Pixso.
	</desc>
	<defs>
		<clipPath id="clip1_737">
			<rect id="git-pull-request" width="25.000000" height="25.000000" fill="white" fill-opacity="0"/>
		</clipPath>
	</defs>
	<rect id="git-pull-request" width="25.000000" height="25.000000" fill="#FFFFFF" fill-opacity="0"/>
	<g clip-path="url(#clip1_737)">
		<path id="Vector" d="M18.75 21.87C17.02 21.87 15.62 20.47 15.62 18.75C15.62 17.02 17.02 15.62 18.75 15.62C20.47 15.62 21.87 17.02 21.87 18.75C21.87 20.47 20.47 21.87 18.75 21.87Z" stroke="#FF862F" stroke-opacity="1.000000" stroke-width="2.000000" stroke-linejoin="round"/>
		<path id="Vector" d="M6.25 9.37C4.52 9.37 3.12 7.97 3.12 6.25C3.12 4.52 4.52 3.12 6.25 3.12C7.97 3.12 9.37 4.52 9.37 6.25C9.37 7.97 7.97 9.37 6.25 9.37Z" stroke="#FF862F" stroke-opacity="1.000000" stroke-width="2.000000" stroke-linejoin="round"/>
		<path id="Vector" d="M13.54 6.25L16.66 6.25C17.21 6.25 17.74 6.46 18.13 6.86C18.53 7.25 18.75 7.78 18.75 8.33L18.75 " stroke="#FF862F" stroke-opacity="1.000000" stroke-width="2.000000" stroke-linejoin="round" stroke-linecap="round"/>
		<path id="Vector" d="M6.25 9.37L6.25 " stroke="#FF862F" stroke-opacity="1.000000" stroke-width="2.000000" stroke-linejoin="round" stroke-linecap="round"/>
	</g>
</svg>
