<svg width="17.000000" height="17.000000" viewBox="0 0 17 17" fill="none" xmlns="http://www.w3.org/2000/svg" xmlns:xlink="http://www.w3.org/1999/xlink">
	<desc>
			Created with Pixso.
	</desc>
	<defs/>
	<path id="Vector" d="M15.34 11.09C14.21 11.09 13.12 10.91 12.1 10.58C11.78 10.47 11.42 10.55 11.18 10.8L9.74 12.61C7.14 11.37 4.71 9.03 3.42 6.34L5.21 4.82C5.46 4.57 5.53 4.21 5.43 3.89C5.09 2.87 4.91 1.78 4.91 0.65C4.91 0.16 4.5 -0.25 4.01 -0.25L0.84 -0.25C0.34 -0.25 -0.25 -0.04 -0.25 0.65C-0.25 9.17 6.83 16.25 15.34 16.25C15.99 16.25 16.25 15.67 16.25 15.16L16.25 12C16.25 11.51 15.83 11.09 15.34 11.09Z" fill="#FF862F" fill-opacity="1.000000" fill-rule="nonzero"/>
</svg>
