<svg width="20.000000" height="20.000000" viewBox="0 0 20 20" fill="none" xmlns="http://www.w3.org/2000/svg" xmlns:xlink="http://www.w3.org/1999/xlink">
	<desc>
			Created with Pixso.
	</desc>
	<defs>
		<clipPath id="clip7_1583">
			<rect id="search" width="20.000000" height="20.000000" fill="white" fill-opacity="0"/>
		</clipPath>
	</defs>
	<rect id="search" width="20.000000" height="20.000000" fill="#FFFFFF" fill-opacity="0"/>
	<g clip-path="url(#clip7_1583)">
		<path id="Vector" d="M17.81 16.06L14.6 13.31C15.55 12.09 16.06 10.6 16.06 9.03C16.06 7.15 15.32 5.38 14 4.06C12.67 2.73 10.9 2 9.03 2C7.15 2 5.38 2.73 4.06 4.06C2.73 5.38 2 7.15 2 9.03C2 10.9 2.73 12.67 4.06 14C5.38 15.33 7.15 16.06 9.03 16.06C10.6 16.06 12.09 15.55 13.31 14.6L16.52 17.35C16.54 17.37 16.56 17.38 16.58 17.39C16.61 17.4 16.63 17.41 16.66 17.41C16.68 17.41 16.71 17.4 16.73 17.39C16.75 17.38 16.77 17.37 16.79 17.35L17.81 16.33C17.83 16.31 17.85 16.29 17.86 16.27C17.87 16.24 17.87 16.22 17.87 16.19C17.87 16.17 17.87 16.14 17.86 16.12C17.85 16.1 17.83 16.08 17.81 16.06ZM12.74 12.74C11.75 13.73 10.43 14.28 9.03 14.28C7.62 14.28 6.31 13.73 5.31 12.74C4.32 11.75 3.78 10.43 3.78 9.03C3.78 7.62 4.32 6.31 5.31 5.31C6.31 4.32 7.62 3.78 9.03 3.78C10.43 3.78 11.75 4.32 12.74 5.31C13.73 6.31 14.28 7.62 14.28 9.03C14.28 10.43 13.73 11.75 12.74 12.74Z" fill="#999999" fill-opacity="1.000000" fill-rule="nonzero"/>
	</g>
</svg>
