<svg width="16.000000" height="15.000000" viewBox="0 0 16 15" fill="none" xmlns="http://www.w3.org/2000/svg" xmlns:xlink="http://www.w3.org/1999/xlink">
	<desc>
			Created with Pixso.
	</desc>
	<defs/>
	<path id="Vector" d="M15.27 5.28L10.54 4.59L8.42 0.33C8.37 0.21 8.27 0.11 8.15 0.06C7.86 -0.09 7.5 0.03 7.35 0.33L5.24 4.59L0.51 5.28C0.37 5.3 0.26 5.36 0.16 5.45C0.05 5.56 -0.01 5.71 0 5.87C0 6.03 0.06 6.18 0.18 6.29L3.6 9.61L2.79 14.3C2.77 14.41 2.78 14.52 2.83 14.62C2.87 14.73 2.94 14.82 3.03 14.88C3.12 14.95 3.22 14.99 3.33 14.99C3.45 15 3.56 14.98 3.66 14.93L7.89 12.71L12.12 14.93C12.24 14.99 12.37 15.01 12.5 14.99C12.82 14.93 13.04 14.62 12.99 14.3L12.18 9.61L15.6 6.29C15.69 6.2 15.76 6.08 15.77 5.95C15.83 5.63 15.6 5.33 15.27 5.28Z" fill="#FF862F" fill-opacity="1.000000" fill-rule="nonzero"/>
</svg>
