<svg width="26.000000" height="28.000000" viewBox="0 0 26 28" fill="none" xmlns="http://www.w3.org/2000/svg" xmlns:xlink="http://www.w3.org/1999/xlink">
	<desc>
			Created with Pixso.
	</desc>
	<defs/>
	<path id="Vector" d="M24.98 22.85C24.32 21.27 23.38 19.85 22.19 18.64C21 17.43 19.6 16.47 18.06 15.81C18.04 15.8 18.03 15.8 18.02 15.79C20.17 14.21 21.57 11.63 21.57 8.72C21.57 3.9 17.73 0 13 0C8.26 0 4.42 3.9 4.42 8.72C4.42 11.63 5.82 14.21 7.97 15.79C7.96 15.8 7.95 15.8 7.93 15.81C6.38 16.47 4.99 17.43 3.8 18.65C2.61 19.85 1.67 21.28 1.02 22.85C0.37 24.39 0.03 26.04 0 27.71C-0.01 27.74 0 27.78 0.01 27.82C0.03 27.85 0.05 27.88 0.07 27.91C0.1 27.94 0.13 27.96 0.16 27.97C0.2 27.99 0.23 28 0.27 28L2.35 28C2.5 28 2.62 27.87 2.62 27.72C2.69 25 3.76 22.46 5.66 20.53C7.62 18.54 10.22 17.44 13 17.44C15.77 17.44 18.37 18.54 20.33 20.53C22.23 22.46 23.3 25 23.37 27.72C23.37 27.88 23.49 28 23.64 28L25.72 28C25.76 28 25.79 27.99 25.83 27.97C25.86 27.96 25.89 27.94 25.92 27.91C25.94 27.88 25.96 27.85 25.98 27.82C25.99 27.78 26 27.74 25.99 27.71C25.96 26.03 25.62 24.39 24.98 22.85ZM13 14.77C11.41 14.77 9.91 14.14 8.79 13C7.67 11.85 7.05 10.33 7.05 8.72C7.05 7.1 7.67 5.58 8.79 4.44C9.91 3.3 11.41 2.67 13 2.67C14.58 2.67 16.08 3.3 17.2 4.44C18.32 5.58 18.94 7.1 18.94 8.72C18.94 10.33 18.32 11.85 17.2 13C16.08 14.14 14.58 14.77 13 14.77Z" fill="#A65CF0" fill-opacity="1.000000" fill-rule="nonzero"/>
</svg>
