<svg width="187.000000" height="27.000000" viewBox="0 0 187 27" fill="none" xmlns="http://www.w3.org/2000/svg" xmlns:xlink="http://www.w3.org/1999/xlink">
	<desc>
			Created with Pixso.
	</desc>
	<defs>
		<clipPath id="clip1_275">
			<rect id="elephant 1" width="37.000000" height="27.000000" transform="matrix(-1 0 0 1 37 0)" fill="white" fill-opacity="0"/>
		</clipPath>
	</defs>
	<rect id="Frame 20" width="187.000000" height="27.000000" fill="#FFFFFF" fill-opacity="0"/>
	<rect id="elephant 1" width="37.000000" height="27.000000" transform="matrix(-1 0 0 1 37 0)" fill="#FFFFFF" fill-opacity="0"/>
	<g clip-path="url(#clip1_275)">
		<path id="Vector" d="M5.43 23.45C10.09 23.45 10.96 19.32 10.96 16.02C11.52 16.02 15.89 16.02 17.88 16.02C28.73 16.02 28.73 0.57 18.23 0.57C15.37 0.57 13.53 2.31 13.04 2.92C7.18 2.92 6.47 6 6.47 11.99C6.47 13.14 6.47 16.9 6.47 17.48C6.47 18.89 5.9 19.8 4.39 19.8C3.1 19.8 2.48 18.65 1.97 17.03C1.7 17.17 -0.19 18.2 -0.45 18.37C0.12 19.99 0.73 23.45 5.43 23.45ZM12.01 9.64C13.79 9.64 13.94 12.33 11.89 12.33C10.16 12.33 10.2 9.64 12.01 9.64ZM18.23 17.69C16.73 17.69 12.35 17.37 12.35 17.37L12.35 25.65L16.5 25.71L17.54 19.72L30.68 19.47L31.03 26.04L35.87 26.1C35.87 26.1 36.57 13.23 36.57 10.65C36.57 5.86 34.44 3.14 29.65 2.92C28.45 2.86 26.88 2.63 25.84 2.58C30.35 8.11 26.76 17.69 18.23 17.69ZM26.53 21.05L26.88 25.92L29.65 25.98L29.3 21.05L26.53 21.05ZM17.88 25.77L20.65 25.83L21.34 21.05L18.92 21.05L17.88 25.77Z" fill="#FF862F" fill-opacity="1.000000" fill-rule="evenodd"/>
	</g>
	<path id="SitDownPls" d="M69.68 7.5Q69.68 8.18 69.4 8.71Q69.24 9.02 68.98 9.28C68.51 9.75 67.73 9.99 66.66 9.99C66.12 9.99 65.67 9.93 65.29 9.81C64.91 9.68 64.6 9.5 64.35 9.28C64.13 9.06 63.96 8.8 63.85 8.49Q63.69 8.03 63.69 7.5Q63.69 6.66 64.08 6.07Q64.2 5.87 64.38 5.7Q65.06 5 66.66 5C67.75 5 68.52 5.23 68.98 5.7Q69.18 5.89 69.33 6.13Q69.68 6.7 69.68 7.5ZM167.82 21.69C167.83 20.8 167.83 19.91 167.83 19.02Q167.83 16.37 167.8 13.73C167.79 12.85 167.79 11.96 167.79 11.08Q167.79 8.43 167.82 5.76L173.36 5.76C173.37 8.43 173.38 11.09 173.38 13.73L173.38 21.69L167.82 21.69ZM54.79 6.07Q56.27 6.07 57.86 6.4Q59.46 6.71 60.84 7.37L59.57 11.02Q58.98 10.82 58.29 10.69C57.85 10.59 57.41 10.51 56.97 10.45C56.55 10.39 56.13 10.35 55.72 10.34Q55.13 10.29 54.65 10.29C54.28 10.29 54.03 10.35 53.87 10.47C53.74 10.57 53.67 10.73 53.67 10.93C53.67 11.14 53.9 11.31 54.38 11.46C54.85 11.59 55.45 11.74 56.17 11.9C56.51 11.97 56.87 12.06 57.27 12.16C57.68 12.27 58.09 12.4 58.5 12.56C58.91 12.72 59.31 12.93 59.71 13.18C60.1 13.43 60.45 13.73 60.75 14.1Q61.23 14.65 61.51 15.4Q61.78 16.15 61.78 17.13C61.78 17.81 61.64 18.44 61.37 19.03C61.11 19.61 60.67 20.13 60.05 20.57C59.42 21.01 58.6 21.36 57.59 21.62Q56.06 22 53.81 22C53.41 22 52.94 21.97 52.39 21.93C51.86 21.88 51.29 21.81 50.66 21.71C50.06 21.61 49.43 21.47 48.79 21.31C48.16 21.15 47.56 20.95 47 20.7L48.18 16.89C48.89 17.11 49.58 17.29 50.23 17.42C50.9 17.54 51.51 17.63 52.05 17.68C52.61 17.74 53.1 17.78 53.51 17.79C53.92 17.81 54.23 17.82 54.44 17.82C54.93 17.82 55.26 17.75 55.42 17.62C55.61 17.49 55.7 17.33 55.7 17.13C55.7 16.77 55.26 16.49 54.38 16.3C53.46 16.08 52.6 15.86 51.78 15.64Q50.55 15.31 49.61 14.78C49.01 14.43 48.52 13.98 48.16 13.42Q47.61 12.58 47.61 11.22C47.61 10.52 47.72 9.86 47.95 9.24Q48.02 9.06 48.11 8.89Q48.48 8.16 49.16 7.59Q50 6.89 51.37 6.49Q52.76 6.07 54.79 6.07ZM83.32 21.69L83.32 6.45L90.54 6.45C92.12 6.45 93.42 6.65 94.43 7.06Q95.98 7.66 96.87 8.69C97.46 9.38 97.87 10.19 98.1 11.11C98.34 12.03 98.46 13.01 98.46 14.03C98.46 15.03 98.33 15.99 98.05 16.91C97.78 17.84 97.33 18.65 96.71 19.36C96.09 20.06 95.27 20.62 94.25 21.05C93.25 21.47 92.01 21.69 90.54 21.69L83.32 21.69ZM166.48 11.48C166.48 12.17 166.35 12.82 166.09 13.44C165.85 14.04 165.47 14.57 164.97 15.02C164.47 15.48 163.86 15.84 163.13 16.1C162.4 16.37 161.56 16.5 160.6 16.5L158.64 16.5L158.64 21.69L152.9 21.69L152.9 6.45L160.23 6.45C161.42 6.45 162.41 6.58 163.22 6.84C164.02 7.11 164.66 7.47 165.13 7.92C165.62 8.37 165.96 8.91 166.16 9.53C166.37 10.14 166.48 10.79 166.48 11.48ZM78.05 7.35L78.05 10.74L81.1 10.74L81.1 14.03L78.05 14.03L78.05 16.52C78.05 16.86 78.07 17.13 78.11 17.33C78.18 17.54 78.26 17.69 78.37 17.79C78.49 17.9 78.64 17.96 78.82 17.99C79 18.02 79.22 18.04 79.48 18.04C79.59 18.04 79.8 18.02 80.12 17.99C80.44 17.96 80.79 17.92 81.17 17.86L81.76 21.31C81.46 21.43 81.13 21.53 80.78 21.62C80.45 21.69 80.1 21.76 79.75 21.82C79.42 21.88 79.09 21.91 78.75 21.93C78.43 21.96 78.15 21.97 77.91 21.97Q76.04 21.97 74.97 21.56C74.26 21.28 73.72 20.93 73.35 20.52C73 20.1 72.78 19.64 72.69 19.16C72.6 18.67 72.56 18.23 72.56 17.82L72.56 14.03L71.05 14.03L71.05 11.11L72.97 10.56C73.16 10.08 73.36 9.58 73.56 9.09Q73.85 8.34 74.13 7.61L78.05 7.35ZM89.06 10.14L89.06 17.95L90.13 17.95C90.61 17.95 91.01 17.85 91.31 17.64C91.63 17.42 91.87 17.13 92.04 16.78C92.22 16.42 92.34 16 92.41 15.53C92.48 15.06 92.52 14.57 92.52 14.06C92.52 13.53 92.48 13.03 92.41 12.56C92.33 12.08 92.19 11.66 92 11.31C91.81 10.96 91.56 10.68 91.22 10.47C90.89 10.25 90.46 10.14 89.95 10.14L89.06 10.14ZM158.64 10.14L158.64 12.93L159.35 12.93C159.77 12.93 160.1 12.82 160.33 12.58C160.57 12.35 160.69 12.02 160.69 11.59C160.69 11.04 160.55 10.65 160.28 10.45C160.01 10.24 159.65 10.14 159.21 10.14L158.64 10.14ZM181.28 10.43C182.1 10.43 182.94 10.51 183.81 10.67C184.67 10.82 185.49 11.06 186.27 11.39L185.31 14.43C184.63 14.21 183.97 14.06 183.33 13.97C182.69 13.88 182.12 13.84 181.62 13.84C181.39 13.84 181.23 13.87 181.14 13.92C181.05 13.98 181 14.08 181 14.21C181 14.28 181.13 14.36 181.39 14.43C181.65 14.49 181.96 14.55 182.33 14.63C182.78 14.7 183.28 14.81 183.83 14.96C184.38 15.09 184.88 15.29 185.36 15.57C185.83 15.85 186.21 16.23 186.52 16.7Q187 17.38 187 18.45C187 18.94 186.89 19.39 186.68 19.82C186.46 20.24 186.1 20.62 185.58 20.94C185.08 21.25 184.41 21.5 183.58 21.69C182.74 21.86 181.71 21.95 180.48 21.95C180.16 21.95 179.78 21.94 179.34 21.91C178.92 21.88 178.45 21.83 177.95 21.75C177.45 21.68 176.93 21.58 176.4 21.47C175.89 21.33 175.39 21.17 174.92 20.98L175.83 17.82C177.09 18.17 178.08 18.38 178.8 18.45C179.51 18.51 180.03 18.54 180.37 18.54C180.62 18.54 180.84 18.53 181 18.5C181.17 18.45 181.26 18.37 181.26 18.26C181.26 18.15 181.21 18.07 181.12 18.01C181.03 17.96 180.91 17.91 180.78 17.88C180.64 17.84 180.49 17.8 180.32 17.77C180.17 17.74 180.03 17.71 179.89 17.68C179.33 17.55 178.77 17.41 178.23 17.27C177.69 17.12 177.22 16.92 176.79 16.67C176.38 16.42 176.05 16.11 175.79 15.73C175.53 15.33 175.4 14.82 175.4 14.19C175.4 13.67 175.5 13.19 175.7 12.74C175.89 12.28 176.22 11.89 176.68 11.55C177.13 11.2 177.73 10.93 178.48 10.74C179.24 10.53 180.17 10.43 181.28 10.43ZM142.78 11.9C143.47 11.4 144.17 11.04 144.9 10.8C145.64 10.57 146.29 10.45 146.84 10.45C148.23 10.45 149.23 10.8 149.82 11.5C150.41 12.19 150.71 13.22 150.71 14.58L150.71 21.69L145.13 21.69L145.13 15.62C145.13 15.19 145.04 14.9 144.88 14.74C144.73 14.58 144.48 14.5 144.13 14.5C143.99 14.5 143.81 14.53 143.6 14.58C143.39 14.64 143.18 14.75 142.96 14.89L142.96 21.69L137.36 21.69Q137.37 20.31 137.37 18.94Q137.37 17.57 137.36 16.21Q137.35 14.84 137.35 13.47L137.35 13.46Q137.35 12.09 137.36 10.71L142.51 10.71L142.62 11.83L142.78 11.9ZM113.72 16.19C113.72 17.04 113.59 17.82 113.33 18.52C113.07 19.22 112.66 19.83 112.1 20.35C111.56 20.84 110.85 21.23 109.98 21.51Q108.68 21.93 106.84 21.93C105.59 21.93 104.54 21.79 103.67 21.51C102.81 21.23 102.1 20.84 101.56 20.35C101.01 19.83 100.61 19.22 100.35 18.52C100.1 17.82 99.98 17.04 99.98 16.19C99.98 15.35 100.1 14.58 100.35 13.88C100.61 13.18 101.01 12.58 101.56 12.08C102.12 11.58 102.83 11.19 103.7 10.91Q104.99 10.49 106.84 10.49C108.07 10.49 109.12 10.63 109.98 10.91C110.86 11.19 111.58 11.58 112.12 12.08Q112.49 12.41 112.77 12.8L112.77 12.8Q113.12 13.29 113.33 13.88C113.59 14.58 113.72 15.35 113.72 16.19ZM63.9 21.69Q63.91 20.31 63.91 18.94Q63.91 17.57 63.9 16.21Q63.89 14.85 63.89 13.48Q63.89 12.11 63.9 10.74L69.46 10.74Q69.45 12.11 69.45 13.48Q69.45 14.85 69.46 16.21Q69.47 17.57 69.47 18.94Q69.47 20.31 69.46 21.69L63.9 21.69ZM129.47 17.9L129.86 14.76L130.59 10.76L135.92 10.76C135.51 12.6 135.07 14.43 134.62 16.23C134.18 18.04 133.75 19.85 133.32 21.69L126.58 21.69L125.78 17.66L125.39 14.65L125.21 14.65L124.87 17.64L124.12 21.69L117.42 21.69Q116.76 18.94 116.05 16.25C115.58 14.47 115.13 12.63 114.71 10.76L120.15 10.76L120.88 14.85L121.27 17.99L121.41 17.99L121.88 14.83L122.75 10.76L127.99 10.76L128.83 14.78L129.31 17.9L129.47 17.9ZM108.02 16.19C108.02 15.47 107.94 14.95 107.77 14.63C107.61 14.29 107.3 14.12 106.84 14.12C106.38 14.12 106.07 14.31 105.91 14.69C105.74 15.08 105.66 15.57 105.66 16.19C105.66 16.97 105.74 17.52 105.91 17.86C106.07 18.2 106.38 18.37 106.84 18.37C107.3 18.37 107.61 18.2 107.77 17.86C107.94 17.52 108.02 16.97 108.02 16.19Z" fill="#A65CF0" fill-opacity="1.000000" fill-rule="evenodd"/>
</svg>
