<svg display="none" xmlns="http://www.w3.org/2000/svg">
  <symbol id="vk" viewBox="0 0 25.5106 25.5106">
    <path id="Vector" d="M12.7552 0C5.71094 0 0 5.71072 0 12.7553C0 19.7999 5.71094 25.5106 12.7552 25.5106C19.7997 25.5106 25.5106 19.7999 25.5106 12.7553C25.5106 5.71072 19.7997 0 12.7552 0ZM19.2255 14.1348C19.8199 14.7155 20.449 15.262 20.9827 15.9027C21.2191 16.1861 21.442 16.4792 21.6116 16.8088C21.8538 17.2788 21.6351 17.7943 21.2144 17.8222L18.6012 17.8217C17.9263 17.8775 17.3893 17.6053 16.9364 17.1439C16.575 16.7762 16.2396 16.3834 15.8915 16.0032C15.7493 15.8471 15.5995 15.7002 15.4209 15.5846C15.0647 15.3528 14.7551 15.4238 14.5511 15.796C14.3431 16.1746 14.2957 16.5943 14.2758 17.0158C14.2473 17.6319 14.0615 17.793 13.4432 17.8219C12.1222 17.8838 10.8687 17.6833 9.70374 17.0173C8.6759 16.4299 7.88049 15.6007 7.18738 14.662C5.83752 12.832 4.80383 10.8235 3.875 8.75738C3.66602 8.29205 3.81885 8.04308 4.33228 8.03342C5.18506 8.01698 6.03796 8.01907 6.89087 8.03265C7.23792 8.03812 7.46765 8.23673 7.60095 8.56425C8.06189 9.69821 8.62683 10.7771 9.33496 11.7777C9.52356 12.0441 9.71619 12.3098 9.99048 12.498C10.2932 12.7057 10.5239 12.6371 10.6667 12.2991C10.7581 12.0843 10.7975 11.8547 10.8173 11.6245C10.8851 10.8361 10.8932 10.0479 10.7758 9.26263C10.7028 8.77121 10.4264 8.45387 9.93652 8.36095C9.68701 8.31372 9.72351 8.22133 9.84485 8.07883C10.0555 7.83247 10.2528 7.68006 10.6471 7.68006L13.5996 7.67954C14.0649 7.77088 14.1693 7.97967 14.2324 8.44838L14.2351 11.7294C14.2296 11.9108 14.3262 12.4484 14.6519 12.5671C14.9128 12.6533 15.0851 12.444 15.2411 12.2788C15.9491 11.5274 16.4536 10.6406 16.9054 9.72274C17.1047 9.31796 17.2767 8.89909 17.4437 8.47944C17.568 8.16914 17.7611 8.01646 18.1113 8.02168L20.9545 8.02508C21.0382 8.02508 21.1233 8.02586 21.2063 8.04021C21.6854 8.12216 21.8168 8.32833 21.6685 8.79575C21.4352 9.53014 20.9818 10.1419 20.5387 10.7552C20.0637 11.4118 19.5571 12.0454 19.0869 12.7049C18.6547 13.3078 18.6888 13.6113 19.2255 14.1348Z" fill="#CACACA" fill-opacity="1.000000" fill-rule="nonzero"/>
  </symbol>

  <symbol id="insta" viewBox="0 0 25.5106 25.5106">
    <defs>
		<clipPath id="clip1_66">
			<rect id="instagram" width="25.510607" height="25.510607" transform="matrix(-1 0 0 1 25.5106 0)" fill="white" fill-opacity="0"/>
		</clipPath>
	</defs>
	<rect id="instagram" width="25.510607" height="25.510607" transform="matrix(-1 0 0 1 25.5106 0)" fill="#FFFFFF" fill-opacity="0"/>
	<g clip-path="url(#clip1_66)">
		<path id="Vector" d="M10.3138 12.7553C10.3138 14.1037 11.407 15.1968 12.7554 15.1968C14.1038 15.1968 15.1968 14.1037 15.1968 12.7553C15.1968 11.4069 14.1038 10.3139 12.7554 10.3139C11.407 10.3139 10.3138 11.4069 10.3138 12.7553Z" fill="#CACACA" fill-opacity="1.000000" fill-rule="nonzero"/>
		<path id="Vector" d="M7.04565 8.43562C7.16309 8.11759 7.35034 7.82973 7.59363 7.59345C7.82983 7.35017 8.11755 7.16293 8.43579 7.04557C8.69385 6.94534 9.08154 6.82603 9.79565 6.79352C10.5681 6.75829 10.7998 6.7507 12.7554 6.7507C14.7112 6.7507 14.9429 6.75809 15.7151 6.79333C16.4292 6.82603 16.8171 6.94534 17.0751 7.04557C17.3932 7.16293 17.6812 7.35017 17.9172 7.59345C18.1605 7.82973 18.3477 8.1174 18.4652 8.43562C18.5656 8.6937 18.6848 9.0816 18.7173 9.7957C18.7526 10.568 18.7601 10.7996 18.7601 12.7554C18.7601 14.7111 18.7526 14.9427 18.7173 15.7152C18.6848 16.4293 18.5656 16.817 18.4652 17.0751C18.3477 17.3933 18.1606 17.681 17.9174 17.9172C17.6812 18.1605 17.3934 18.3478 17.0752 18.4651C16.8171 18.5656 16.4292 18.6849 15.7151 18.7174C14.9429 18.7526 14.7114 18.76 12.7556 18.76C10.7996 18.76 10.568 18.7526 9.7959 18.7174C9.08179 18.6849 8.69385 18.5656 8.43579 18.4651C7.797 18.2187 7.29211 17.7139 7.04565 17.0751C6.94543 16.817 6.82617 16.4293 6.79346 15.7152C6.7583 14.9427 6.75085 14.7111 6.75085 12.7554C6.75085 10.7996 6.7583 10.568 6.79346 9.7957C6.82593 9.0816 6.94531 8.6937 7.04565 8.43562ZM12.7554 16.5163C14.8326 16.5163 16.5166 14.8325 16.5166 12.7552C16.5166 10.678 14.8326 8.99421 12.7554 8.99421C10.6783 8.99421 8.99438 10.678 8.99438 12.7552C8.99438 14.8325 10.6783 16.5163 12.7554 16.5163ZM8.8457 9.72446C9.33105 9.72446 9.72461 9.33092 9.72461 8.84551C9.72461 8.3601 9.33105 7.96656 8.8457 7.96656C8.36023 7.96656 7.96667 8.3601 7.96667 8.84551C7.96692 9.33092 8.36023 9.72446 8.8457 9.72446Z" fill="#CACACA" fill-opacity="1.000000" fill-rule="nonzero"/>
		<path id="Vector" d="M12.7554 0C19.7988 0 25.5106 5.71182 25.5106 12.7553C25.5106 19.7988 19.7988 25.5106 12.7554 25.5106C5.71179 25.5106 0 19.7988 0 12.7553C0 5.71182 5.71179 0 12.7554 0ZM5.47522 15.775C5.51062 16.5547 5.63452 17.087 5.81555 17.5529C6.19604 18.5368 6.97388 19.3145 7.95764 19.695C8.42346 19.8761 8.95593 19.9998 9.73547 20.0355C10.5165 20.0711 10.766 20.0796 12.7551 20.0796C14.7444 20.0796 14.9938 20.0711 15.775 20.0355C16.5544 19.9998 17.087 19.8761 17.5527 19.695C18.0416 19.5111 18.4843 19.2229 18.8502 18.8502C19.2227 18.4844 19.511 18.0417 19.6948 17.5529C19.8759 17.0872 19.9999 16.5547 20.0353 15.7752C20.0713 14.9939 20.0797 14.7444 20.0797 12.7553C20.0797 10.7662 20.0713 10.5167 20.0355 9.73561C20 8.95592 19.8762 8.42361 19.6953 7.95766C19.5114 7.46895 19.2229 7.02616 18.8502 6.66045C18.4845 6.28773 18.0416 5.99948 17.553 5.81556C17.087 5.63455 16.5547 5.51077 15.775 5.47515C14.9939 5.43953 14.7444 5.43097 12.7554 5.43097C10.7662 5.43097 10.5167 5.43953 9.7356 5.47534C8.95593 5.51077 8.42358 5.63455 7.95764 5.81536C7.46899 5.99929 7.02612 6.28773 6.66028 6.66045C6.28772 7.02635 5.99927 7.46895 5.81555 7.95766C5.6344 8.42361 5.51062 8.95592 5.47498 9.73561C5.43933 10.5167 5.43103 10.7662 5.43103 12.7553C5.43103 14.7444 5.43933 14.9939 5.47522 15.775Z" fill="#CACACA" fill-opacity="1.000000" fill-rule="nonzero"/>
	</g>
  </symbol>

  <symbol id="facebook" viewBox="0 0 25.5106 25.5106">
    <path d="M12.7552 0C5.73987 0 0 5.75013 0 12.8321C0 19.2354 4.66846 24.5501 10.7655 25.5106L10.7655 16.546L7.52563 16.546L7.52563 12.8321L10.7655 12.8321L10.7655 10.0019C10.7655 6.78746 12.666 5.02016 15.5869 5.02016C16.9773 5.02016 18.4314 5.26348 18.4314 5.26348L18.4314 8.4267L16.8242 8.4267C15.2426 8.4267 14.7451 9.4128 14.7451 10.4245L14.7451 12.8321L18.2911 12.8321L17.717 16.546L14.7451 16.546L14.7451 25.5106C17.7509 25.034 20.4878 23.4942 22.4619 21.1693C24.4362 18.8443 25.5175 15.8873 25.5106 12.8321C25.5106 5.75013 19.7708 0 12.7552 0Z" fill="#CACACA" fill-opacity="1.000000" fill-rule="nonzero"/>
  </symbol>
</svg>